<svg xmlns="http://www.w3.org/2000/svg" width="16" height="15.978" viewBox="0 0 16 15.978"><defs><style>.a{fill:#f26c4d;}</style></defs><g transform="translate(0 0)"><g transform="translate(-200.206 -54.842)"><path class="a" d="M215.617,70.819H200.206V60.739l.232-.221,7.415-5.559a.591.591,0,0,1,.707,0l7.61,5.707.036.321V70.23A.59.59,0,0,1,215.617,70.819Zm-14.411-1h14V61.192l-7-5.248-7,5.248Zm6.753-14.06h0Zm.494,0h0Z"/></g><g transform="translate(-200.206 -54.842)"><path class="a" d="M201.027,70.7l-.643-.766,7.225-6.054a.93.93,0,0,1,1.193,0l7.225,6.054-.643.766-7.224-6.053Z"/></g><g transform="translate(-200.206 -54.842)"><rect class="a" width="1" height="6.905" transform="translate(200.557 61.564) rotate(-52.213)"/></g><g transform="translate(-200.206 -54.842)"><rect class="a" width="6.905" height="1" transform="matrix(0.79, -0.613, 0.613, 0.79, 209.785, 65.005)"/></g></g></svg>