<svg xmlns="http://www.w3.org/2000/svg" width="15.991" height="16.002" viewBox="0 0 15.991 16.002"><defs><style>.a{fill:#f26c4d;}</style></defs><g transform="translate(0 0)"><g transform="translate(-235.124 -53.092)"><path class="a" d="M248.26,60.273l-.988-.161a2.834,2.834,0,0,0-.09-1.3,3.084,3.084,0,0,0-.792-1.3,2.4,2.4,0,0,0-1.288-.669,1.9,1.9,0,0,0-.823.05L244,55.928a2.908,2.908,0,0,1,1.252-.077,3.377,3.377,0,0,1,1.83.938,4.039,4.039,0,0,1,1.055,1.731A3.849,3.849,0,0,1,248.26,60.273Z"/></g><g transform="translate(-235.124 -53.092)"><path class="a" d="M250.782,61.56l-.948-.319a5.354,5.354,0,0,0,0-3.425,5.678,5.678,0,0,0-1.323-2.17,5.2,5.2,0,0,0-2.128-1.333,4.63,4.63,0,0,0-2.854,0l-.3-.953a5.681,5.681,0,0,1,3.461,0,6.226,6.226,0,0,1,2.538,1.586,6.7,6.7,0,0,1,1.556,2.554A6.341,6.341,0,0,1,250.782,61.56Z"/></g><g transform="translate(-235.124 -53.092)"><path class="a" d="M243.349,64.96a4.7,4.7,0,0,1-3.4-1.98c-1.328-1.688-1.562-3.689-.544-4.654l.688.726c-.541.512-.449,1.923.642,3.31s2.491,1.849,3.15,1.47l.5.865A2.048,2.048,0,0,1,243.349,64.96Z"/></g><g transform="translate(-235.124 -53.092)"><path class="a" d="M244.985,69.094c-1.794,0-4.406-1.8-6.775-4.816-2.9-3.692-3.917-7.421-2.356-8.674.852-.685,1-.764,1.2-.783l.047.5.172.465a8.242,8.242,0,0,0-.791.6c-.929.746-.124,3.918,2.517,7.276,2.666,3.39,5.609,4.969,6.587,4.27a10.15,10.15,0,0,0,.812-.613l.815.572c-.081.133-.185.235-1.043.852A1.981,1.981,0,0,1,244.985,69.094Z"/></g><g transform="translate(-235.124 -53.092)"><path class="a" d="M247.413,67.813a.944.944,0,0,1-.743-.357l-2.553-3.246a.919.919,0,0,1,.175-1.307l1.157-.864a.95.95,0,0,1,1.3.171l2.554,3.246a.918.918,0,0,1-.176,1.307l-1.156.864A.941.941,0,0,1,247.413,67.813Zm.043-.976h0Zm-2.5-3.183,2.469,3.138,1.05-.783-2.5-3.181Z"/></g><g transform="translate(-235.124 -53.092)"><path class="a" d="M240.55,59.088a.941.941,0,0,1-.742-.356l-2.554-3.246a.919.919,0,0,1,.175-1.307l1.157-.864a.95.95,0,0,1,1.305.169l2.554,3.248a.909.909,0,0,1,.189.688.919.919,0,0,1-.363.619l-1.158.864A.94.94,0,0,1,240.55,59.088Zm.043-.975h0Zm-2.5-3.183,2.469,3.139,1.05-.784L239.1,54.1Z"/></g></g></svg>