<svg xmlns="http://www.w3.org/2000/svg" width="16.057" height="9.148" viewBox="0 0 16.057 9.148"><defs><style>.a{fill:#f26c4d;fill-rule:evenodd;}</style></defs><g transform="translate(0 0)"><path class="a" d="M978.611,866.029h.959a.818.818,0,0,0,.438-.191.7.7,0,0,0,.132-.422s-.019-1.3.579-1.492,1.346,1.245,2.147,1.8a1.454,1.454,0,0,0,1.068.309l2.144,0s1.121-.086.589-.967a7.143,7.143,0,0,0-1.595-1.845c-1.344-1.248-1.164-1.046.456-3.2.986-1.315,1.381-2.117,1.257-2.461-.118-.328-.838-.271-.838-.271H983.53a.587.587,0,0,0-.312.063.681.681,0,0,0-.213.279,13.7,13.7,0,0,1-.892,1.9c-1.075,1.825-1.5,1.922-1.681,1.808-.409-.264-.307-1.061-.307-1.628,0-1.769.268-2.507-.523-2.7a4.121,4.121,0,0,0-1.127-.112,5.185,5.185,0,0,0-2,.2c-.275.135-.487.434-.358.451a1.084,1.084,0,0,1,.712.358,2.328,2.328,0,0,1,.239,1.092s.142,2.083-.332,2.341c-.325.177-.772-.184-1.73-1.841a14.941,14.941,0,0,1-.862-1.8.716.716,0,0,0-.2-.269,1.007,1.007,0,0,0-.371-.15h-2.294s-.344.01-.471.16c-.112.133-.009.409-.009.409a26.071,26.071,0,0,0,3.83,6.351A5.563,5.563,0,0,0,978.611,866.029Z" transform="translate(-970.755 -856.892)"/></g></svg>